<svg width="167" height="88" viewBox="0 0 167 88" fill="none" xmlns="http://www.w3.org/2000/svg">
<path d="M7.98047 76.0161V75.3047C7.99357 75.5682 7.99357 75.8053 7.98047 76.0161Z" fill="#F7AD1D"/>
<path d="M27.0028 75.5022C27.0072 75.691 27.0028 75.8622 26.9897 76.0247V74.7864C26.9941 75.0235 26.9985 75.265 27.0028 75.5022Z" fill="#F7AD1D"/>
<path d="M135.97 73.9389V75.9194C135.979 75.7569 135.983 75.5857 135.983 75.41C135.979 74.9533 135.975 74.4615 135.97 73.9389Z" fill="#F7AD1D"/>
<path d="M90.6523 75.6867V73.9609C90.6829 74.5362 90.6917 75.1114 90.6523 75.6867Z" fill="#F7AD1D"/>
<path d="M149.144 75.7525C149.148 75.9281 149.144 76.0862 149.127 76.2355V74.0311C149.127 74.602 149.135 75.1772 149.144 75.7525Z" fill="#F7AD1D"/>
<path d="M45.7412 85.6915V86.0998C45.7412 87.0571 44.9724 87.8344 44.0159 87.8344H38.5384C37.9662 87.8344 37.4989 87.3689 37.4989 86.7893V80.1102C37.4989 80.0268 37.5032 79.9477 37.5207 79.8687C37.5251 77.5194 37.5513 75.1744 37.4421 72.8339C37.2717 69.1277 35.5813 67.3932 32.4626 67.4766C29.5536 67.5556 27.0507 70.1421 26.9939 73.2862C26.9546 75.4335 26.9372 77.5852 26.9415 79.7325C26.9459 81.2695 26.959 82.8064 26.9852 84.3433V86.7893C26.9852 87.3645 26.5222 87.8344 25.9456 87.8344H19.7868C19.2146 87.8344 18.7473 87.3689 18.7473 86.7893V82.802C18.7429 82.3761 18.7429 81.915 18.7429 81.41C18.7385 78.5425 18.7866 75.6706 18.6512 72.812C18.5376 70.4758 17.5548 68.5173 15.2092 67.7181C13.3179 67.0726 11.2912 67.2922 10.0288 68.8818C9.07224 70.0806 8.30348 71.7581 8.20738 73.273C7.99772 76.3996 7.98025 79.6667 7.98025 82.7845V86.7937C7.98025 87.3689 7.51725 87.8388 6.94068 87.8388H1.72534C0.76876 87.8388 0 87.0615 0 86.1042V60.5692C0 59.6119 0.76876 58.8346 1.72534 58.8346H7.55656C8.12876 58.8346 8.59613 59.3001 8.59613 59.8798V63.4147C14.6021 57.8291 20.857 59.8271 25.3734 65.4303C28.3218 61.5396 32.1176 59.5065 37.0402 60.3716C42.059 61.2586 45.2301 64.8375 45.5359 70.3046C45.7106 73.4662 45.7194 76.6367 45.7194 79.8072C45.715 81.7701 45.7106 83.7286 45.7412 85.6915Z" fill="#F7AD1D"/>
<path d="M77.5966 60.5692C77.5966 59.6119 76.8278 58.8346 75.8713 58.8346H70.0051C69.4504 58.8346 69.0048 59.2869 69.0048 59.8402V62.2686C62.7325 58.9137 56.6479 59.9105 52.5551 64.9209C48.5366 69.8391 48.5279 77.9805 52.5246 82.9733C56.5518 87.9969 62.5709 88.9146 68.3802 85.8539C68.6773 85.6695 69.0179 85.3665 69.2975 85.1206V86.7366C69.2975 87.3426 69.7867 87.8344 70.3895 87.8344H75.8145C76.7667 87.8344 77.5398 87.0571 77.5398 86.0998V80.2946C77.5922 75.4774 77.6184 71.1652 77.5791 66.0055C77.5922 65.9177 77.601 65.8299 77.601 65.7377V60.5692H77.5966ZM63.7851 80.4351C60.0942 80.4659 57.6569 77.8751 57.6351 73.9054C57.6132 69.9664 60.0462 67.4459 63.8201 67.4722C67.2751 67.5073 69.5596 69.9972 69.6382 73.8263C69.7125 77.6335 67.2577 80.4044 63.7851 80.4351Z" fill="#F7AD1D"/>
<path d="M108.155 87.2461C105.591 87.2636 103.647 87.29 101.45 87.1758C100.603 87.2066 99.978 86.3678 99.5107 85.8145C97.1389 83.0173 94.8064 80.185 92.3298 77.1989C92.2424 77.0935 92.0764 77.0847 91.9891 77.1901C91.1504 78.1299 90.7922 79.1311 90.6481 80.163C90.504 81.2564 90.6001 82.3806 90.6481 83.5135V86.0956C90.6481 87.0529 89.875 87.8301 88.9228 87.8301H83.4628C82.8819 87.8301 82.4058 87.3559 82.4058 86.7674V80.1059C82.4058 80.0488 82.4101 79.9874 82.4145 79.9259C82.4145 79.9259 82.4145 79.9215 82.4145 79.9171C82.4058 74.9945 82.4058 69.4528 82.4145 64.82C82.4145 64.8156 82.4145 64.8112 82.4145 64.8112C82.4101 64.7542 82.4058 64.6971 82.4058 64.64V51.2291C82.4058 50.2762 83.1745 49.499 84.1268 49.499H88.8092C89.757 49.499 90.5302 50.2719 90.5302 51.2291V51.3741C90.5389 51.4004 90.5433 51.4224 90.5433 51.4487L90.6962 67.828C90.7005 68.03 90.9451 68.1266 91.0849 67.9773C91.8231 67.1781 93.5004 65.3689 94.7365 64.012C94.9287 63.7969 95.1165 63.5905 95.2956 63.3929C95.4223 63.2567 95.5489 63.1206 95.6625 62.9889C95.6712 62.9801 95.68 62.9757 95.6843 62.9669C99.0608 59.3002 99.5806 59.3002 100.459 59.3002H106.412C107.364 59.3002 108.29 60.0819 107.329 61.0348L107.115 61.2236C107.111 61.2631 107.093 61.2983 107.067 61.329C103.879 64.7278 100.681 68.131 97.4272 71.6001C97.3485 71.6835 97.3442 71.8109 97.4184 71.8987C101.179 76.4612 104.857 80.9227 108.849 85.7575C109.334 86.3415 108.919 87.2417 108.155 87.2461Z" fill="#F7AD1D"/>
<path d="M135.948 80.6811C135.909 74.4938 135.865 66.3305 135.83 62.7033V59.9061C135.83 59.3177 135.354 58.839 134.769 58.839H128.964C128.007 58.839 127.238 59.6163 127.238 60.5736V62.1544C121.062 58.9181 114.925 60.0115 110.959 64.9209C106.879 69.9708 106.936 78.1473 111.086 83.1753C115.039 87.9705 121.259 88.8971 126.666 85.9505C127.138 85.6651 127.483 85.2962 127.715 84.9362V86.7629C127.715 87.3513 128.191 87.83 128.776 87.83H134.249C135.197 87.83 135.97 87.0571 135.97 86.0998V83.4914C135.966 82.6264 135.957 81.6779 135.948 80.6811ZM122.233 80.4307C118.607 80.4834 115.969 77.7477 115.943 73.8966C115.921 70.0718 118.537 67.4239 122.281 67.4854C125.788 67.5425 127.95 70.0103 127.942 73.9537C127.937 77.8311 125.692 80.3737 122.233 80.4307Z" fill="#F7AD1D"/>
<path d="M166.987 80.7467C166.991 80.8038 166.995 80.8653 166.995 80.9268V86.7583C166.995 87.3512 166.519 87.8298 165.93 87.8298H159.928C159.338 87.8298 158.862 87.3512 158.862 86.7583V80.9268C158.862 80.8346 158.871 80.7423 158.888 80.6545C158.875 77.3699 158.888 74.0721 158.596 70.805C158.329 67.8497 156.211 66.7607 153.407 67.7443C150.869 68.6313 149.157 71.0201 149.143 73.7603C149.13 76.0789 149.117 78.3974 149.117 80.716C149.117 81.6733 149.122 82.6306 149.135 83.5879V86.4729C149.135 87.2238 148.528 87.8386 147.776 87.8386H142.592C141.635 87.8386 140.866 87.0613 140.866 86.104V60.569C140.866 60.5646 140.866 60.5646 140.866 60.5602C140.871 59.6073 141.639 58.8345 142.592 58.8345H148.392C148.982 58.8345 149.458 59.3131 149.458 59.9059V63.8054C149.877 63.4321 150.301 63.0457 150.729 62.6636C153.638 60.1211 156.897 59.3922 160.557 60.7578C164.344 62.1718 166.471 65.092 166.729 68.9299C167 72.8513 167.017 76.7946 166.991 80.738C166.987 80.7424 166.987 80.7467 166.987 80.7467Z" fill="#F7AD1D"/>
<path d="M149.126 71.3744L149.127 74.0311C149.113 73.0738 149.108 72.1165 149.108 71.1592C149.122 71.2294 149.126 71.2997 149.126 71.3744Z" fill="#F7AD1D"/>
<path d="M135.97 71.3744L135.97 73.9389C135.966 73.0695 135.957 72.1253 135.948 71.1285C135.966 71.2075 135.97 71.291 135.97 71.3744Z" fill="#F7AD1D"/>
<path d="M90.6523 70.6104V73.9609C90.6043 72.828 90.5082 71.6995 90.6523 70.6104Z" fill="#F7AD1D"/>
<path d="M45.741 70.5532V76.1389C45.7104 74.176 45.7148 72.2175 45.7104 70.2502C45.7323 70.3512 45.741 70.4522 45.741 70.5532Z" fill="#F7AD1D"/>
<path d="M26.9895 70.5532L26.9897 74.7864C26.9592 73.2495 26.9502 71.7125 26.9458 70.1755C26.9764 70.2985 26.9895 70.4258 26.9895 70.5532Z" fill="#F7AD1D"/>
<path d="M67.4504 32.2318H63.7797C62.8872 32.2318 62.1616 31.307 62.1616 30.1694V25.0851C62.1616 23.9476 62.8872 23.0227 63.7797 23.0227H67.4504C68.3428 23.0227 69.0685 23.9476 69.0685 25.0851V30.1694C69.0685 31.307 68.3467 32.2318 67.4504 32.2318Z" fill="#F7AD1D"/>
<path d="M131.729 33.573C131.199 33.4927 130.375 33.2428 129.094 32.6985C117.564 27.0412 106.103 21.2232 94.5162 15.6819C89.2653 13.17 83.8103 11.0909 78.3858 8.96712C70.1926 5.75921 62.0471 6.24999 53.8148 9.19466C43.0048 13.0629 33.1538 18.8942 23.1683 24.4623C18.4295 27.1081 13.7687 29.9278 8.93434 32.3683C6.8383 33.4213 5.32811 34.3672 3.00641 34.5278C0.667345 34.6795 -0.847187 32.1274 0.515457 30.1688C1.40508 28.8883 2.50735 28.393 3.83528 27.6346C19.1976 18.8496 34.2908 9.54713 50.751 2.91715C63.0018 -2.02633 74.7405 -0.335374 86.1407 5.34874C89.6298 7.09323 93.0755 8.91804 96.4951 10.8053V6.58461C96.4951 5.36658 97.4541 4.3761 98.6432 4.3761H105.851C107.032 4.3761 107.995 5.36212 107.995 6.58461V17.3505C115.472 21.6694 122.767 26.3362 130.119 30.8871C130.687 31.2396 131.685 31.9846 132.236 32.6137C132.588 33.0153 132.254 33.6533 131.729 33.573Z" fill="#F7AD1D"/>
<path d="M36.8365 41.6457C37.4411 41.47 38.0336 41.1888 38.6463 41.1436C43.1042 40.8072 70.1662 38.5427 96.4382 38.0456C116.257 37.6741 145.943 39.1904 147.015 39.7477C148.97 40.767 148.99 43.0064 147.08 44.0859C146.145 44.6181 144.968 44.9043 143.904 44.8943C136.12 44.8391 119.046 42.2683 98.8889 41.8917C72.6854 41.3997 42.939 43.0566 38.7148 42.7302C38.086 42.68 37.4693 42.429 36.8486 42.2683C36.8446 42.0624 36.8405 41.8516 36.8365 41.6457Z" fill="#F7AD1D"/>
</svg>
